<svg width="19" height="19" viewBox="0 0 19 19" fill="none" xmlns="http://www.w3.org/2000/svg">
<path d="M18.5625 14.5732C18.5625 14.9797 18.4167 15.3252 18.125 15.6098L16 17.6829C15.7083 17.9675 15.3542 18.1098 14.9375 18.1098C14.5208 18.1098 14.1667 17.9675 13.875 17.6829L9.28125 13.2012L4.6875 17.6829C4.39583 17.9675 4.04167 18.1098 3.625 18.1098C3.20833 18.1098 2.85417 17.9675 2.5625 17.6829L0.4375 15.6098C0.145833 15.3252 0 14.9797 0 14.5732C0 14.1667 0.145833 13.8211 0.4375 13.5366L5.03125 9.05488L0.4375 4.57317C0.145833 4.28862 0 3.94309 0 3.53659C0 3.13008 0.145833 2.78455 0.4375 2.5L2.5625 0.426829C2.85417 0.142276 3.20833 0 3.625 0C4.04167 0 4.39583 0.142276 4.6875 0.426829L9.28125 4.90854L13.875 0.426829C14.1667 0.142276 14.5208 0 14.9375 0C15.3542 0 15.7083 0.142276 16 0.426829L18.125 2.5C18.4167 2.78455 18.5625 3.13008 18.5625 3.53659C18.5625 3.94309 18.4167 4.28862 18.125 4.57317L13.5312 9.05488L18.125 13.5366C18.4167 13.8211 18.5625 14.1667 18.5625 14.5732Z" fill="white"/>
</svg>
