<svg width="26" height="26" viewBox="0 0 26 26" fill="none" xmlns="http://www.w3.org/2000/svg">
<path d="M18.8711 11.9316L8.02441 22.7783L1.21973 23.9268L2.36719 17.1211L13.2139 6.27441L18.8711 11.9316ZM19.1787 1C19.5652 1.00001 19.9379 1.13425 20.2344 1.37695L20.3574 1.48828L23.6572 4.78906C23.8121 4.94383 23.9348 5.12784 24.0186 5.33008C24.1023 5.53223 24.1455 5.74896 24.1455 5.96777C24.1455 6.1867 24.1024 6.40419 24.0186 6.60645C23.9348 6.80846 23.8119 6.99185 23.6572 7.14648L22.1709 8.63184L16.5137 2.97559L18 1.48828C18.3125 1.17583 18.7368 1 19.1787 1Z" fill="white" stroke="black" stroke-width="2"/>
</svg>
